<svg id="Calque_1" data-name="Calque 1" xmlns="http://www.w3.org/2000/svg" xmlns:xlink="http://www.w3.org/1999/xlink" viewBox="0 0 500 409.5"><defs><clipPath id="clip-path"><polygon points="180.71 173.68 171.57 227.84 228.19 233.27 263.44 158.84 314.36 135.97 242.97 123.79 180.71 173.68" fill="none"/></clipPath></defs><path d="M229.29,152.23a100.42,100.42,0,0,0-12.85,44.21c0,.3,0,.61,0,.91-.1,2.13-.1,4.28-.05,6.43l-.34.12-.3.1-42.3,14.23-41.29-38.37-31,127.35-30-1.26,40.3-192.24,69.26,60,48.17-21.28Z" fill="#ee7539"/><path d="M273.87,156.29a5.49,5.49,0,0,1,.61-.57,64.31,64.31,0,0,0-16.4,25.5l0,0v0a60,60,0,0,0-2.1,7.62l-.55.2.3-1.26v-.05a64,64,0,0,1,18.16-31.49Z" fill="#ee7539"/><path d="M316.54,113.72l-19.1,28-.35.49-.49.72c-1.58.55-3.12,1.16-4.63,1.86l.1-.65a63.41,63.41,0,0,0-15.86,10,55.68,55.68,0,0,1,5-4,62.81,62.81,0,0,1,10.88-6.29l3-20.63Z" fill="#ee7539"/><g clip-path="url(#clip-path)"><path d="M231.31,151.33A105.59,105.59,0,0,0,216,203.9l-42.59,14.34-41.3-38.38-31,127.35-30-1.26,40.29-192.24,69.27,60Z" fill="#e25f1d"/></g><path d="M388.58,128.08,362.19,153.8a64,64,0,0,0-98.58,37.75v0a63.81,63.81,0,0,0,15.83,58.93,62.65,62.65,0,0,0,7.67,6.82l0,0-1,41.75a100.69,100.69,0,0,1-62.27-86.45h0a100.25,100.25,0,0,1,31.07-79.58C292.45,97.4,349.92,95.42,388.58,128.08Z" fill="#e62c4a"/><path d="M412.44,354.61l-72.9-49.25c-51,8.06-99.61-24.69-112.33-75.7a100.3,100.3,0,0,1,16.5-83.81h0a100.61,100.61,0,0,1,98.92-39.53l-21.52,35.8h0A60,60,0,0,0,311,143.77,63.88,63.88,0,0,0,266,185l0,0v0a63.93,63.93,0,0,0,91.83,76.59l12.86,21.74v-.05l4.87,8.32.27.47v0Z" fill="#e62c4a"/><path d="M413,151.62h0a101.45,101.45,0,0,1,.94,107.48l-25.75-33.34a62.54,62.54,0,0,0,2.16-10.16A64.46,64.46,0,0,0,368,158.22v0h0a64.52,64.52,0,0,0-68.14-9.64l5.64-39.1,0-2.63a103.52,103.52,0,0,1,34.69-1.39A101.33,101.33,0,0,1,413,151.62Z" fill="#e62c4a"/><line x1="388.58" y1="128.08" x2="362.19" y2="153.8" fill="#e62c4a"/><path d="M216.4,197.35c-.1,2.13-.1,4.28-.05,6.43l-.34.12c.06-2.55.21-5,.43-7.46C216.43,196.74,216.41,197.05,216.4,197.35Z" fill="#ee7539"/></svg>